# xmcd
#
# Track frame offsets:
#	150
#	12764
#	25918
#	46393
#	56662
#	66496
#	80298
#	98988
#	112642
#	129296
#	154562
#
# Disc length: 2256 seconds
# Revision: 0
# Processed by: cddbd v1.5.2PL0 Copyright (c) Steve Scherf et al.
# Submitted via: dBpowerAMP V12.0
#
DISCID=7e08ce0b
DTITLE=Cream City - Cream City
DYEAR=2009
DGENRE=Bluegrass
TTITLE0=Perfect After All
TTITLE1=The Fox
TTITLE2=Sing Me Back Home
TTITLE3=Cheyenne
TTITLE4=Children Go Where I Send Thee
TTITLE5=Cry From the Cross
TTITLE6=All I Ever Loved Was You
TTITLE7=Old Home Place
TTITLE8=Brown Country Breakdown
TTITLE9=Tenderly Calling
TTITLE10=There Ain't Nobody Gonna Miss Me
EXTD=
EXTT0=
EXTT1=
EXTT2=
EXTT3=
EXTT4=
EXTT5=
EXTT6=
EXTT7=
EXTT8=
EXTT9=
EXTT10=
PLAYORDER=
